<svg width="270" height="56" viewBox="0 0 270 56" fill="none" xmlns="http://www.w3.org/2000/svg">
<g id="header">
<g id="logo">
<g id="Group 18">
<g id="Group 14">
<g id="Group">
<path id="Caminho_310" fill-rule="evenodd" clip-rule="evenodd" d="M92.0126 9.2816V7.20316L86.267 9.33873H86.2561V11.4716H86.267L92.0126 13.6072V11.526L89.0664 10.3997L92.0126 9.27888V9.2816Z" fill="#F7DD43"/>
<path id="Caminho_312" fill-rule="evenodd" clip-rule="evenodd" d="M125.292 13.5037V11.4253L128.236 10.3072L125.292 9.18905V7.1106L131.03 9.24618H131.043V11.3817H131.03L125.292 13.5064V13.5037ZM122.827 4.16977L119.454 15H121.456L124.83 4.16977H122.827Z" fill="#F7DD43"/>
<path id="Caminho_307" fill-rule="evenodd" clip-rule="evenodd" d="M100.454 6.91747C101.026 7.54317 101.325 8.3702 101.29 9.21627V13.8302H99.2873V9.64066C99.3118 9.17274 99.1621 8.7157 98.8683 8.35116C98.5908 8.02742 98.1801 7.84787 97.7529 7.86691C96.4988 7.86691 95.8704 8.73746 95.8704 10.4758V13.8302H93.8681V6.25639H95.8704V6.93923C96.507 6.32168 97.3694 5.99251 98.2562 6.03059C99.0833 5.99523 99.8831 6.31896 100.454 6.91747Z" fill="#F7DD43"/>
<path id="Caminho_308" fill-rule="evenodd" clip-rule="evenodd" d="M103.841 3V13.8302H105.844V3H103.841Z" fill="#F7DD43"/>
<path id="Caminho_309" fill-rule="evenodd" clip-rule="evenodd" d="M117.166 13.8302H115.496L113.858 9.36862L112.204 13.8302H110.534L107.726 6.2428H109.867L111.445 10.7806L113.072 6.2428H114.636L116.263 10.7942L117.841 6.2428H119.982L117.172 13.8302H117.166Z" fill="#F7DD43"/>
</g>
</g>
</g>
<g id="Vector">
<path d="M140.58 17.9981C138.653 17.9981 136.629 17.6331 135.043 16.754V1.24411C136.605 0.389878 138.628 2.85548e-05 140.58 2.85548e-05C142.531 2.85548e-05 144.507 0.365035 146.066 1.24411V7.19505H142.139V3.14558C141.676 2.95066 141.115 2.87804 140.555 2.87804C139.995 2.87804 139.481 2.95066 138.993 3.14558V14.8525C139.456 15.0475 139.993 15.1201 140.555 15.1201C141.117 15.1201 141.652 15.0475 142.139 14.8525V10.805H146.066V16.7559C144.53 17.6101 142.506 17.9752 140.58 18V17.9981Z" fill="#F7DD43"/>
<path d="M153.431 17.9981C151.358 17.9981 149.359 17.5585 147.773 16.6565V1.3167C149.334 0.439536 151.335 0 153.431 0C155.528 0 157.479 0.414693 159.04 1.3167V16.6565C157.504 17.5585 155.48 17.9732 153.431 17.9981ZM155.115 3.19524C154.652 3.00031 154.091 2.90285 153.408 2.90285C152.726 2.90285 152.189 3.00031 151.725 3.19524V14.7799C152.187 14.9997 152.749 15.0971 153.408 15.0971C154.068 15.0971 154.628 14.9997 155.115 14.7799V3.19524Z" fill="#F7DD43"/>
<path d="M165.893 11.4127H164.844V17.7783H160.869V0.219779H165.893C168.284 0.219779 170.088 0.707092 171.502 1.70656V9.92589C170.113 10.9024 168.282 11.4127 165.893 11.4127ZM167.552 3.24303C167.187 2.97548 166.698 2.85318 165.868 2.85318H164.794V8.77927H165.868C166.673 8.77927 167.16 8.65697 167.552 8.41427V3.24303Z" fill="#F7DD43"/>
<path d="M179.817 17.7783V11.4127H176.891V17.7783H172.941V1.29185C174.38 0.437625 176.404 0 178.355 0C180.306 0 182.305 0.439537 183.744 1.29185V17.7783H179.817ZM179.817 3.04809C179.402 2.85316 178.89 2.7557 178.353 2.7557C177.816 2.7557 177.304 2.85316 176.889 3.04809V8.63211H179.815V3.04809H179.817Z" fill="#F7DD43"/>
</g>
</g>
<path id="CALEND&#195;&#129;RIO" d="M58.2129 39.9248H62.5928C62.5049 41.3604 62.1094 42.6348 61.4062 43.748C60.7129 44.8613 59.7412 45.7305 58.4912 46.3555C57.251 46.9805 55.7568 47.293 54.0088 47.293C52.6416 47.293 51.416 47.0586 50.332 46.5898C49.248 46.1113 48.3203 45.4277 47.5488 44.5391C46.7871 43.6504 46.2061 42.5762 45.8057 41.3164C45.4053 40.0566 45.2051 38.6455 45.2051 37.083V35.6035C45.2051 34.041 45.4102 32.6299 45.8203 31.3701C46.2402 30.1006 46.8359 29.0215 47.6074 28.1328C48.3887 27.2441 49.3213 26.5605 50.4053 26.082C51.4893 25.6035 52.7002 25.3643 54.0381 25.3643C55.8154 25.3643 57.3145 25.6865 58.5352 26.3311C59.7656 26.9756 60.7178 27.8643 61.3916 28.9971C62.0752 30.1299 62.4854 31.4189 62.6221 32.8643H58.2275C58.1787 32.0049 58.0078 31.2773 57.7148 30.6816C57.4219 30.0762 56.9775 29.6221 56.3818 29.3193C55.7959 29.0068 55.0146 28.8506 54.0381 28.8506C53.3057 28.8506 52.666 28.9873 52.1191 29.2607C51.5723 29.5342 51.1133 29.9492 50.7422 30.5059C50.3711 31.0625 50.0928 31.7656 49.9072 32.6152C49.7314 33.4551 49.6436 34.4414 49.6436 35.5742V37.083C49.6436 38.1865 49.7266 39.1582 49.8926 39.998C50.0586 40.8281 50.3125 41.5312 50.6543 42.1074C51.0059 42.6738 51.4551 43.1035 52.002 43.3965C52.5586 43.6797 53.2275 43.8213 54.0088 43.8213C54.9268 43.8213 55.6836 43.6748 56.2793 43.3818C56.875 43.0889 57.3291 42.6543 57.6416 42.0781C57.9639 41.502 58.1543 40.7842 58.2129 39.9248ZM74.1504 29.3193L68.3496 47H63.6768L71.6016 25.6719H74.5752L74.1504 29.3193ZM78.9697 47L73.1543 29.3193L72.6855 25.6719H75.6885L83.6572 47H78.9697ZM78.7061 39.0605V42.5029H67.4414V39.0605H78.7061ZM99.3457 43.5723V47H88.6084V43.5723H99.3457ZM90.0293 25.6719V47H85.6348V25.6719H90.0293ZM116.177 43.5723V47H104.824V43.5723H116.177ZM106.26 25.6719V47H101.865V25.6719H106.26ZM114.697 34.3584V37.6982H104.824V34.3584H114.697ZM116.162 25.6719V29.1143H104.824V25.6719H116.162ZM136.099 25.6719V47H131.704L123.135 32.7031V47H118.74V25.6719H123.135L131.719 39.9834V25.6719H136.099ZM146.47 47H141.826L141.855 43.5723H146.47C147.622 43.5723 148.594 43.3135 149.385 42.7959C150.176 42.2686 150.771 41.502 151.172 40.4961C151.582 39.4902 151.787 38.2744 151.787 36.8486V35.8086C151.787 34.7148 151.67 33.7529 151.436 32.9229C151.211 32.0928 150.874 31.3945 150.425 30.8281C149.976 30.2617 149.424 29.8369 148.77 29.5537C148.115 29.2607 147.363 29.1143 146.514 29.1143H141.738V25.6719H146.514C147.939 25.6719 149.243 25.916 150.425 26.4043C151.616 26.8828 152.646 27.5713 153.516 28.4697C154.385 29.3682 155.054 30.4424 155.522 31.6924C156.001 32.9326 156.24 34.3145 156.24 35.8379V36.8486C156.24 38.3623 156.001 39.7441 155.522 40.9941C155.054 42.2441 154.385 43.3184 153.516 44.2168C152.656 45.1055 151.626 45.7939 150.425 46.2822C149.233 46.7607 147.915 47 146.47 47ZM144.316 25.6719V47H139.922V25.6719H144.316ZM167.783 29.3193L161.982 47H157.31L165.234 25.6719H168.208L167.783 29.3193ZM172.603 47L166.787 29.3193L166.318 25.6719H169.321L177.29 47H172.603ZM172.339 39.0605V42.5029H161.074V39.0605H172.339ZM165.308 24.4707L168.179 19.959H172.764L168.735 24.4707H165.308ZM179.268 25.6719H187.222C188.853 25.6719 190.254 25.916 191.426 26.4043C192.607 26.8926 193.516 27.6152 194.15 28.5723C194.785 29.5293 195.103 30.7061 195.103 32.1025C195.103 33.2451 194.907 34.2266 194.517 35.0469C194.136 35.8574 193.594 36.5361 192.891 37.083C192.197 37.6201 191.382 38.0498 190.444 38.3721L189.053 39.1045H182.139L182.109 35.6768H187.251C188.022 35.6768 188.662 35.54 189.17 35.2666C189.678 34.9932 190.059 34.6123 190.312 34.124C190.576 33.6357 190.708 33.0693 190.708 32.4248C190.708 31.7412 190.581 31.1504 190.327 30.6523C190.073 30.1543 189.688 29.7734 189.17 29.5098C188.652 29.2461 188.003 29.1143 187.222 29.1143H183.662V47H179.268V25.6719ZM191.191 47L186.328 37.4932L190.972 37.4639L195.894 46.7949V47H191.191ZM203.159 25.6719V47H198.779V25.6719H203.159ZM224.795 35.8379V36.8486C224.795 38.4697 224.575 39.9248 224.136 41.2139C223.696 42.5029 223.076 43.6016 222.275 44.5098C221.475 45.4082 220.518 46.0967 219.404 46.5752C218.301 47.0537 217.075 47.293 215.728 47.293C214.39 47.293 213.164 47.0537 212.051 46.5752C210.947 46.0967 209.99 45.4082 209.18 44.5098C208.369 43.6016 207.739 42.5029 207.29 41.2139C206.851 39.9248 206.631 38.4697 206.631 36.8486V35.8379C206.631 34.207 206.851 32.752 207.29 31.4727C207.729 30.1836 208.35 29.085 209.15 28.1768C209.961 27.2686 210.918 26.5752 212.021 26.0967C213.135 25.6182 214.36 25.3789 215.698 25.3789C217.046 25.3789 218.271 25.6182 219.375 26.0967C220.488 26.5752 221.445 27.2686 222.246 28.1768C223.057 29.085 223.682 30.1836 224.121 31.4727C224.57 32.752 224.795 34.207 224.795 35.8379ZM220.356 36.8486V35.8086C220.356 34.6758 220.254 33.6797 220.049 32.8203C219.844 31.9609 219.541 31.2383 219.141 30.6523C218.74 30.0664 218.252 29.627 217.676 29.334C217.1 29.0312 216.44 28.8799 215.698 28.8799C214.956 28.8799 214.297 29.0312 213.721 29.334C213.154 29.627 212.671 30.0664 212.271 30.6523C211.88 31.2383 211.582 31.9609 211.377 32.8203C211.172 33.6797 211.069 34.6758 211.069 35.8086V36.8486C211.069 37.9717 211.172 38.9678 211.377 39.8369C211.582 40.6963 211.885 41.4238 212.285 42.0195C212.686 42.6055 213.174 43.0498 213.75 43.3525C214.326 43.6553 214.985 43.8066 215.728 43.8066C216.47 43.8066 217.129 43.6553 217.705 43.3525C218.281 43.0498 218.765 42.6055 219.155 42.0195C219.546 41.4238 219.844 40.6963 220.049 39.8369C220.254 38.9678 220.356 37.9717 220.356 36.8486Z" fill="url(#paint0_linear_122_239)"/>
</g>
<defs>
<linearGradient id="paint0_linear_122_239" x1="135" y1="18" x2="135" y2="56" gradientUnits="userSpaceOnUse">
<stop stop-color="white"/>
<stop offset="1" stop-color="#D9D9D9" stop-opacity="0.8"/>
</linearGradient>
</defs>
</svg>